<svg width="394" height="290" viewBox="0 0 394 290" fill="none" xmlns="http://www.w3.org/2000/svg">
<path d="M13.4537 62.4404C11.4019 62.4404 9.81914 61.8834 8.70533 60.7694C7.59152 59.6555 7.03461 58.0725 7.03461 56.0205V6.77171C7.03461 4.71967 7.65014 3.07805 8.8812 1.84683C10.1123 0.61561 11.783 0 13.8934 0C16.0037 0 17.6745 0.61561 18.9055 1.84683C20.1366 3.07805 20.7521 4.71967 20.7521 6.77171V51.2715H43.2629C47.5422 51.2715 49.6819 53.1476 49.6819 56.8999C49.6819 60.5936 47.5422 62.4404 43.2629 62.4404H13.4537Z" fill="white"/>
<path d="M89.7435 49.6005C90.9159 49.6005 91.8539 50.0696 92.5573 51.0076C93.3194 51.9457 93.7005 53.1476 93.7005 54.6133C93.7005 55.6101 93.4073 56.5481 92.8211 57.4276C92.2349 58.2484 91.4142 58.9519 90.359 59.5382C88.3659 60.5936 86.0503 61.473 83.4123 62.1766C80.7744 62.8215 78.3416 63.1439 76.1139 63.1439C71.4242 63.1439 67.3207 62.2352 63.8034 60.4177C60.3447 58.6002 57.6774 56.0205 55.8015 52.6786C53.9256 49.2781 52.9877 45.2913 52.9877 40.7182C52.9877 36.321 53.8963 32.4221 55.7136 29.0216C57.5308 25.6211 60.0516 22.9828 63.2758 21.1066C66.5 19.1718 70.1638 18.2045 74.2673 18.2045C78.195 18.2045 81.6244 19.0839 84.5555 20.8428C87.5452 22.543 89.8607 25.0055 91.5021 28.2301C93.1435 31.3961 93.9642 35.1191 93.9642 39.399C93.9642 40.6889 93.6418 41.6856 92.997 42.3891C92.4108 43.034 91.5608 43.3565 90.447 43.3565H65.8258C66.2362 46.8156 67.2914 49.3367 68.9914 50.9197C70.6914 52.4441 73.1242 53.2062 76.2898 53.2062C77.9898 53.2062 79.514 53.001 80.8623 52.5906C82.2106 52.1802 83.7055 51.6232 85.3469 50.9197C86.1676 50.5679 86.959 50.2748 87.721 50.0403C88.4831 49.7471 89.1573 49.6005 89.7435 49.6005ZM74.6191 27.3506C72.0983 27.3506 70.0759 28.1715 68.5517 29.8131C67.0276 31.3961 66.1189 33.7119 65.8258 36.7607H82.7968C82.6209 33.6533 81.8296 31.3081 80.4226 29.7251C79.0743 28.1421 77.1398 27.3506 74.6191 27.3506Z" fill="white"/>
<path d="M130.583 22.1619C131.169 20.9307 131.931 20.022 132.869 19.4357C133.866 18.7907 134.921 18.4683 136.035 18.4683C137.676 18.4683 139.141 19.0253 140.431 20.1392C141.721 21.1946 142.366 22.4844 142.366 24.0088C142.366 24.8882 142.16 25.7383 141.75 26.5592L125.922 59.0106C125.336 60.3004 124.457 61.2971 123.284 62.0007C122.112 62.6456 120.851 62.9681 119.503 62.9681C118.155 62.9681 116.895 62.6456 115.722 62.0007C114.55 61.2971 113.641 60.3004 112.996 59.0106L97.1683 26.5592C96.8166 25.7383 96.6407 24.9468 96.6407 24.1847C96.6407 22.6017 97.3148 21.2532 98.6631 20.1392C100.07 19.0253 101.624 18.4683 103.324 18.4683C104.555 18.4683 105.668 18.7907 106.665 19.4357C107.662 20.022 108.453 20.9307 109.039 22.1619L119.855 45.8189L130.583 22.1619Z" fill="white"/>
<path d="M181.884 49.6005C183.056 49.6005 183.994 50.0696 184.698 51.0076C185.46 51.9457 185.841 53.1476 185.841 54.6133C185.841 55.6101 185.548 56.5481 184.961 57.4276C184.375 58.2484 183.555 58.9519 182.499 59.5382C180.506 60.5936 178.191 61.473 175.553 62.1766C172.915 62.8215 170.482 63.1439 168.254 63.1439C163.565 63.1439 159.461 62.2352 155.944 60.4177C152.485 58.6002 149.818 56.0205 147.942 52.6786C146.066 49.2781 145.128 45.2913 145.128 40.7182C145.128 36.321 146.037 32.4221 147.854 29.0216C149.671 25.6211 152.192 22.9828 155.416 21.1066C158.64 19.1718 162.304 18.2045 166.408 18.2045C170.335 18.2045 173.765 19.0839 176.696 20.8428C179.686 22.543 182.001 25.0055 183.642 28.2301C185.284 31.3961 186.105 35.1191 186.105 39.399C186.105 40.6889 185.782 41.6856 185.137 42.3891C184.551 43.034 183.701 43.3565 182.587 43.3565H157.966C158.377 46.8156 159.432 49.3367 161.132 50.9197C162.832 52.4441 165.265 53.2062 168.43 53.2062C170.13 53.2062 171.654 53.001 173.003 52.5906C174.351 52.1802 175.846 51.6232 177.487 50.9197C178.308 50.5679 179.099 50.2748 179.861 50.0403C180.623 49.7471 181.298 49.6005 181.884 49.6005ZM166.759 27.3506C164.239 27.3506 162.216 28.1715 160.692 29.8131C159.168 31.3961 158.259 33.7119 157.966 36.7607H174.937C174.761 33.6533 173.97 31.3081 172.563 29.7251C171.215 28.1421 169.28 27.3506 166.759 27.3506Z" fill="white"/>
<path d="M29.4574 93.061C27.0539 93.2368 25.3246 93.9697 24.2694 95.2596C23.2142 96.5494 22.6866 98.3669 22.6866 100.712V102.207H28.8419C32.8282 102.207 34.8213 103.878 34.8213 107.22C34.8213 110.503 32.8282 112.145 28.8419 112.145H22.6866V139.583C22.6866 141.635 22.0418 143.189 20.7521 144.244C19.521 145.3 17.9676 145.827 16.0917 145.827C14.1572 145.827 12.5451 145.3 11.2554 144.244C10.0243 143.189 9.40879 141.635 9.40879 139.583V112.145H5.89149C1.96383 112.145 0 110.503 0 107.22C0 103.878 1.96383 102.207 5.89149 102.207H9.40879C9.40879 96.5787 10.9623 92.1522 14.0692 88.9276C17.1762 85.703 21.4556 83.8854 26.9074 83.475L29.1936 83.2991L30.7764 83.2112C34.8213 83.2112 36.8438 84.7649 36.8438 87.8722C36.8438 90.921 35.1437 92.5919 31.7437 92.8851L29.4574 93.061Z" fill="white"/>
<path d="M73.2561 132.548C74.4286 132.548 75.3665 133.017 76.07 133.955C76.832 134.893 77.2131 136.095 77.2131 137.561C77.2131 138.557 76.92 139.495 76.3338 140.375C75.7475 141.196 74.9268 141.899 73.8717 142.486C71.8785 143.541 69.563 144.42 66.925 145.124C64.287 145.769 61.8542 146.091 59.6266 146.091C54.9368 146.091 50.8333 145.183 47.316 143.365C43.8573 141.548 41.19 138.968 39.3141 135.626C37.4382 132.225 36.5003 128.239 36.5003 123.666C36.5003 119.268 37.4089 115.369 39.2262 111.969C41.0435 108.568 43.5642 105.93 46.7884 104.054C50.0126 102.119 53.6765 101.152 57.78 101.152C61.7076 101.152 65.137 102.031 68.0681 103.79C71.0578 105.49 73.3734 107.953 75.0148 111.177C76.6562 114.343 77.4769 118.066 77.4769 122.346C77.4769 123.636 77.1545 124.633 76.5096 125.336C75.9234 125.981 75.0734 126.304 73.9596 126.304H49.3384C49.7488 129.763 50.804 132.284 52.504 133.867C54.2041 135.391 56.6369 136.154 59.8024 136.154C61.5025 136.154 63.0266 135.948 64.3749 135.538C65.7232 135.128 67.2181 134.571 68.8595 133.867C69.6802 133.515 70.4716 133.222 71.2337 132.988C71.9958 132.694 72.6699 132.548 73.2561 132.548ZM58.1317 110.298C55.611 110.298 53.5885 111.119 52.0644 112.76C50.5402 114.343 49.6316 116.659 49.3384 119.708H66.3094C66.1336 116.601 65.3422 114.256 63.9353 112.673C62.587 111.09 60.6524 110.298 58.1317 110.298Z" fill="white"/>
<path d="M92.1795 145.915C90.245 145.915 88.6329 145.388 87.3432 144.332C86.1121 143.277 85.4966 141.723 85.4966 139.671V89.1914C85.4966 87.1394 86.1121 85.5857 87.3432 84.5304C88.6329 83.475 90.245 82.9474 92.1795 82.9474C94.0554 82.9474 95.6089 83.475 96.8399 84.5304C98.1296 85.5857 98.7744 87.1394 98.7744 89.1914V139.671C98.7744 141.723 98.1296 143.277 96.8399 144.332C95.6089 145.388 94.0554 145.915 92.1795 145.915Z" fill="white"/>
<path d="M115.622 145.915C113.688 145.915 112.076 145.388 110.786 144.332C109.555 143.277 108.94 141.723 108.94 139.671V107.572C108.94 105.52 109.584 103.966 110.874 102.911C112.164 101.855 113.747 101.328 115.622 101.328C117.498 101.328 119.052 101.855 120.283 102.911C121.573 103.966 122.217 105.52 122.217 107.572V139.671C122.217 141.723 121.573 143.277 120.283 144.332C119.052 145.388 117.498 145.915 115.622 145.915ZM115.622 94.2922C113.278 94.2922 111.431 93.7059 110.083 92.5333C108.734 91.3021 108.06 89.6604 108.06 87.6084C108.06 85.5564 108.734 83.9441 110.083 82.7715C111.431 81.5989 113.278 81.0126 115.622 81.0126C117.909 81.0126 119.726 81.6282 121.074 82.8594C122.481 84.032 123.185 85.615 123.185 87.6084C123.185 89.6604 122.511 91.3021 121.162 92.5333C119.814 93.7059 117.967 94.2922 115.622 94.2922Z" fill="white"/>
<path d="M152.343 146.091C147.888 146.091 143.99 145.183 140.648 143.365C137.307 141.548 134.727 138.968 132.91 135.626C131.152 132.284 130.272 128.356 130.272 123.841C130.272 119.327 131.21 115.369 133.086 111.969C135.021 108.51 137.717 105.842 141.176 103.966C144.635 102.09 148.621 101.152 153.135 101.152C155.48 101.152 157.824 101.474 160.169 102.119C162.573 102.764 164.712 103.673 166.588 104.845C168.406 105.959 169.314 107.601 169.314 109.77C169.314 111.295 168.963 112.555 168.259 113.552C167.556 114.49 166.618 114.959 165.445 114.959C164.683 114.959 163.95 114.842 163.247 114.607C162.602 114.314 161.723 113.904 160.609 113.376C159.378 112.731 158.264 112.233 157.268 111.881C156.33 111.529 155.245 111.353 154.014 111.353C150.731 111.353 148.21 112.409 146.452 114.519C144.752 116.571 143.902 119.591 143.902 123.578C143.902 127.564 144.752 130.613 146.452 132.724C148.21 134.834 150.731 135.89 154.014 135.89C155.245 135.89 156.33 135.743 157.268 135.45C158.205 135.098 159.349 134.571 160.697 133.867C161.811 133.339 162.69 132.958 163.335 132.724C163.98 132.431 164.683 132.284 165.445 132.284C166.559 132.284 167.468 132.782 168.171 133.779C168.933 134.776 169.314 136.036 169.314 137.561C169.314 139.73 168.406 141.342 166.588 142.398C164.712 143.57 162.543 144.479 160.081 145.124C157.619 145.769 155.04 146.091 152.343 146.091Z" fill="white"/>
<path d="M182.517 145.915C180.582 145.915 178.97 145.388 177.68 144.332C176.449 143.277 175.834 141.723 175.834 139.671V107.572C175.834 105.52 176.478 103.966 177.768 102.911C179.058 101.855 180.641 101.328 182.517 101.328C184.392 101.328 185.946 101.855 187.177 102.911C188.467 103.966 189.111 105.52 189.111 107.572V139.671C189.111 141.723 188.467 143.277 187.177 144.332C185.946 145.388 184.392 145.915 182.517 145.915ZM182.517 94.2922C180.172 94.2922 178.325 93.7059 176.977 92.5333C175.628 91.3021 174.954 89.6604 174.954 87.6084C174.954 85.5564 175.628 83.9441 176.977 82.7715C178.325 81.5989 180.172 81.0126 182.517 81.0126C184.803 81.0126 186.62 81.6282 187.968 82.8594C189.375 84.032 190.079 85.615 190.079 87.6084C190.079 89.6604 189.405 91.3021 188.056 92.5333C186.708 93.7059 184.861 94.2922 182.517 94.2922Z" fill="white"/>
<path d="M236.12 82.9474C238.172 82.9474 239.814 83.5043 241.045 84.6183C242.334 85.7323 242.979 87.198 242.979 89.0155V139.671C242.979 141.548 242.364 143.072 241.133 144.244C239.96 145.358 238.377 145.915 236.384 145.915C234.391 145.915 232.779 145.358 231.548 144.244C230.375 143.072 229.789 141.548 229.789 139.671V138.968C228.5 141.196 226.653 142.955 224.249 144.244C221.905 145.476 219.237 146.091 216.248 146.091C212.554 146.091 209.242 145.153 206.311 143.277C203.439 141.342 201.182 138.675 199.54 135.274C197.958 131.815 197.166 127.858 197.166 123.402C197.166 118.946 197.958 115.047 199.54 111.705C201.182 108.305 203.439 105.696 206.311 103.878C209.184 102.061 212.496 101.152 216.248 101.152C219.179 101.152 221.817 101.767 224.162 102.999C226.565 104.23 228.412 105.959 229.701 108.187V88.7517C229.701 86.9928 230.288 85.5857 231.46 84.5304C232.632 83.475 234.186 82.9474 236.12 82.9474ZM220.117 135.978C223.224 135.978 225.598 134.922 227.239 132.812C228.939 130.642 229.789 127.564 229.789 123.578C229.789 119.591 228.939 116.542 227.239 114.431C225.598 112.321 223.224 111.265 220.117 111.265C217.01 111.265 214.606 112.321 212.906 114.431C211.206 116.483 210.356 119.474 210.356 123.402C210.356 127.389 211.206 130.496 212.906 132.724C214.606 134.893 217.01 135.978 220.117 135.978Z" fill="white"/>
<path d="M272.637 101.152C278.968 101.152 283.658 102.706 286.706 105.813C289.755 108.862 291.279 113.552 291.279 119.884V139.759C291.279 141.694 290.722 143.218 289.608 144.332C288.494 145.388 286.941 145.915 284.948 145.915C283.072 145.915 281.548 145.358 280.375 144.244C279.261 143.072 278.705 141.577 278.705 139.759V139.144C277.825 141.313 276.36 143.013 274.308 144.244C272.256 145.476 269.853 146.091 267.097 146.091C264.166 146.091 261.499 145.505 259.096 144.332C256.751 143.16 254.875 141.518 253.468 139.408C252.12 137.297 251.445 134.952 251.445 132.372C251.445 129.206 252.237 126.714 253.82 124.897C255.461 123.079 258.07 121.76 261.646 120.939C265.222 120.118 270.116 119.708 276.33 119.708H278.617V118.125C278.617 115.663 278.06 113.874 276.946 112.76C275.891 111.646 274.103 111.09 271.582 111.09C269.061 111.09 265.427 111.969 260.678 113.728C259.33 114.373 258.187 114.695 257.249 114.695C255.959 114.695 254.933 114.256 254.171 113.376C253.409 112.438 253.028 111.236 253.028 109.77C253.028 108.598 253.292 107.63 253.82 106.868C254.347 106.106 255.197 105.402 256.37 104.758C258.421 103.644 260.913 102.764 263.844 102.119C266.834 101.474 269.765 101.152 272.637 101.152ZM269.999 136.945C272.579 136.945 274.66 136.095 276.242 134.395C277.825 132.636 278.617 130.379 278.617 127.623V126.128H277.122C272.373 126.128 269.032 126.509 267.097 127.271C265.222 128.033 264.284 129.411 264.284 131.405C264.284 133.046 264.811 134.395 265.866 135.45C266.98 136.447 268.358 136.945 269.999 136.945Z" fill="white"/>
<path d="M338.05 82.9474C340.102 82.9474 341.743 83.5043 342.974 84.6183C344.264 85.7323 344.909 87.198 344.909 89.0155V139.671C344.909 141.548 344.293 143.072 343.062 144.244C341.89 145.358 340.307 145.915 338.314 145.915C336.321 145.915 334.709 145.358 333.478 144.244C332.305 143.072 331.719 141.548 331.719 139.671V138.968C330.429 141.196 328.583 142.955 326.179 144.244C323.834 145.476 321.167 146.091 318.177 146.091C314.484 146.091 311.172 145.153 308.241 143.277C305.368 141.342 303.112 138.675 301.47 135.274C299.887 131.815 299.096 127.858 299.096 123.402C299.096 118.946 299.887 115.047 301.47 111.705C303.112 108.305 305.368 105.696 308.241 103.878C311.113 102.061 314.426 101.152 318.177 101.152C321.108 101.152 323.746 101.767 326.091 102.999C328.495 104.23 330.341 105.959 331.631 108.187V88.7517C331.631 86.9928 332.217 85.5857 333.39 84.5304C334.562 83.475 336.116 82.9474 338.05 82.9474ZM322.046 135.978C325.153 135.978 327.527 134.922 329.169 132.812C330.869 130.642 331.719 127.564 331.719 123.578C331.719 119.591 330.869 116.542 329.169 114.431C327.527 112.321 325.153 111.265 322.046 111.265C318.939 111.265 316.536 112.321 314.836 114.431C313.136 116.483 312.286 119.474 312.286 123.402C312.286 127.389 313.136 130.496 314.836 132.724C316.536 134.893 318.939 135.978 322.046 135.978Z" fill="white"/>
<path d="M389.779 132.548C390.952 132.548 391.89 133.017 392.593 133.955C393.355 134.893 393.736 136.095 393.736 137.561C393.736 138.557 393.443 139.495 392.857 140.375C392.271 141.196 391.45 141.899 390.395 142.486C388.402 143.541 386.086 144.42 383.448 145.124C380.81 145.769 378.377 146.091 376.15 146.091C371.46 146.091 367.356 145.183 363.839 143.365C360.38 141.548 357.713 138.968 355.837 135.626C353.961 132.225 353.023 128.239 353.023 123.666C353.023 119.268 353.932 115.369 355.749 111.969C357.567 108.568 360.087 105.93 363.311 104.054C366.536 102.119 370.2 101.152 374.303 101.152C378.231 101.152 381.66 102.031 384.591 103.79C387.581 105.49 389.896 107.953 391.538 111.177C393.179 114.343 394 118.066 394 122.346C394 123.636 393.678 124.633 393.033 125.336C392.447 125.981 391.597 126.304 390.483 126.304H365.862C366.272 129.763 367.327 132.284 369.027 133.867C370.727 135.391 373.16 136.154 376.326 136.154C378.026 136.154 379.55 135.948 380.898 135.538C382.246 135.128 383.741 134.571 385.383 133.867C386.203 133.515 386.995 133.222 387.757 132.988C388.519 132.694 389.193 132.548 389.779 132.548ZM374.655 110.298C372.134 110.298 370.112 111.119 368.587 112.76C367.063 114.343 366.155 116.659 365.862 119.708H382.833C382.657 116.601 381.865 114.256 380.458 112.673C379.11 111.09 377.176 110.298 374.655 110.298Z" fill="white"/>
<path d="M32.7109 173.106C36.4041 173.106 39.6869 174.074 42.5594 176.008C45.4905 177.884 47.7474 180.552 49.3302 184.011C50.9716 187.412 51.7923 191.34 51.7923 195.796C51.7923 200.252 50.9716 204.18 49.3302 207.58C47.7474 210.922 45.5198 213.502 42.6473 215.319C39.7749 217.137 36.4627 218.046 32.7109 218.046C29.7798 218.046 27.1126 217.459 24.7091 216.287C22.3642 215.056 20.5469 213.355 19.2572 211.186V227.807C19.2572 229.566 18.671 230.973 17.4986 232.029C16.3262 233.084 14.7727 233.612 12.8382 233.612C10.7864 233.612 9.11568 233.055 7.826 231.941C6.59495 230.827 5.97942 229.361 5.97942 227.544V179.526C5.97942 177.65 6.56564 176.155 7.73807 175.041C8.96913 173.868 10.5812 173.282 12.5744 173.282C14.5675 173.282 16.1503 173.868 17.3227 175.041C18.4952 176.155 19.0814 177.65 19.0814 179.526V180.23C20.3711 178.002 22.2176 176.272 24.6211 175.041C27.0246 173.751 29.7212 173.106 32.7109 173.106ZM28.8419 207.932C31.9489 207.932 34.3523 206.906 36.0524 204.854C37.7524 202.743 38.6024 199.724 38.6024 195.796C38.6024 191.809 37.7524 188.731 36.0524 186.562C34.3523 184.334 31.9489 183.22 28.8419 183.22C25.735 183.22 23.3315 184.304 21.6314 186.474C19.9314 188.584 19.0814 191.633 19.0814 195.62C19.0814 199.548 19.9314 202.597 21.6314 204.766C23.3315 206.877 25.735 207.932 28.8419 207.932Z" fill="white"/>
<path d="M79.34 173.106C85.6711 173.106 90.3608 174.66 93.4092 177.767C96.4575 180.816 97.9817 185.506 97.9817 191.838V211.714C97.9817 213.648 97.4248 215.173 96.311 216.287C95.1971 217.342 93.6437 217.87 91.6505 217.87C89.7746 217.87 88.2505 217.313 87.078 216.199C85.9642 215.026 85.4073 213.531 85.4073 211.714V211.098C84.528 213.267 83.0624 214.968 81.0107 216.199C78.9589 217.43 76.5554 218.046 73.8002 218.046C70.8691 218.046 68.2018 217.459 65.7983 216.287C63.4535 215.114 61.5776 213.473 60.1706 211.362C58.8223 209.251 58.1482 206.906 58.1482 204.326C58.1482 201.16 58.9396 198.669 60.5224 196.851C62.1638 195.034 64.7725 193.714 68.3484 192.894C71.9243 192.073 76.8192 191.662 83.0331 191.662H85.3194V190.079C85.3194 187.617 84.7625 185.829 83.6487 184.715C82.5935 183.601 80.8055 183.044 78.2848 183.044C75.764 183.044 72.1295 183.923 67.3811 185.682C66.0328 186.327 64.8897 186.65 63.9517 186.65C62.6621 186.65 61.6362 186.21 60.8741 185.33C60.112 184.392 59.731 183.19 59.731 181.725C59.731 180.552 59.9948 179.585 60.5224 178.823C61.05 178.06 61.9 177.357 63.0724 176.712C65.1242 175.598 67.6156 174.718 70.5467 174.074C73.5364 173.429 76.4675 173.106 79.34 173.106ZM76.702 208.899C79.2813 208.899 81.3624 208.049 82.9452 206.349C84.528 204.59 85.3194 202.333 85.3194 199.577V198.082H83.8245C79.0762 198.082 75.7347 198.463 73.8002 199.226C71.9243 199.988 70.9864 201.366 70.9864 203.359C70.9864 205.001 71.514 206.349 72.5691 207.404C73.683 208.401 75.0606 208.899 76.702 208.899Z" fill="white"/>
<path d="M133.673 173.282C135.432 173.165 136.81 173.575 137.806 174.513C138.861 175.393 139.389 176.741 139.389 178.559C139.389 180.493 138.92 181.93 137.982 182.868C137.044 183.806 135.373 184.392 132.97 184.627L130.332 184.891C127.108 185.242 124.763 186.298 123.297 188.057C121.89 189.816 121.187 192.073 121.187 194.828V211.626C121.187 213.678 120.542 215.231 119.252 216.287C118.021 217.342 116.468 217.87 114.592 217.87C112.657 217.87 111.045 217.342 109.756 216.287C108.525 215.231 107.909 213.678 107.909 211.626V179.35C107.909 177.415 108.554 175.92 109.844 174.865C111.133 173.81 112.687 173.282 114.504 173.282C116.263 173.282 117.728 173.81 118.901 174.865C120.073 175.862 120.659 177.269 120.659 179.086V181.461C121.715 178.94 123.297 177.005 125.408 175.657C127.577 174.308 129.922 173.546 132.442 173.37L133.673 173.282Z" fill="white"/>
<path d="M162.636 173.106C168.967 173.106 173.656 174.66 176.705 177.767C179.753 180.816 181.277 185.506 181.277 191.838V211.714C181.277 213.648 180.72 215.173 179.607 216.287C178.493 217.342 176.939 217.87 174.946 217.87C173.07 217.87 171.546 217.313 170.374 216.199C169.26 215.026 168.703 213.531 168.703 211.714V211.098C167.824 213.267 166.358 214.968 164.306 216.199C162.254 217.43 159.851 218.046 157.096 218.046C154.165 218.046 151.497 217.459 149.094 216.287C146.749 215.114 144.873 213.473 143.466 211.362C142.118 209.251 141.444 206.906 141.444 204.326C141.444 201.16 142.235 198.669 143.818 196.851C145.459 195.034 148.068 193.714 151.644 192.894C155.22 192.073 160.115 191.662 166.329 191.662H168.615V190.079C168.615 187.617 168.058 185.829 166.944 184.715C165.889 183.601 164.101 183.044 161.58 183.044C159.06 183.044 155.425 183.923 150.677 185.682C149.328 186.327 148.185 186.65 147.247 186.65C145.958 186.65 144.932 186.21 144.17 185.33C143.408 184.392 143.027 183.19 143.027 181.725C143.027 180.552 143.29 179.585 143.818 178.823C144.346 178.06 145.196 177.357 146.368 176.712C148.42 175.598 150.911 174.718 153.842 174.074C156.832 173.429 159.763 173.106 162.636 173.106ZM159.998 208.899C162.577 208.899 164.658 208.049 166.241 206.349C167.824 204.59 168.615 202.333 168.615 199.577V198.082H167.12C162.372 198.082 159.03 198.463 157.096 199.226C155.22 199.988 154.282 201.366 154.282 203.359C154.282 205.001 154.81 206.349 155.865 207.404C156.979 208.401 158.356 208.899 159.998 208.899Z" fill="white"/>
<path d="M236.516 218.046C231.944 218.046 227.928 217.137 224.469 215.319C221.011 213.443 218.343 210.834 216.467 207.492C214.592 204.092 213.654 200.105 213.654 195.532C213.654 190.959 214.592 187.001 216.467 183.659C218.343 180.259 221.011 177.65 224.469 175.832C227.928 174.015 231.944 173.106 236.516 173.106C241.089 173.106 245.104 174.015 248.563 175.832C252.022 177.65 254.689 180.259 256.565 183.659C258.441 187.001 259.379 190.959 259.379 195.532C259.379 200.105 258.441 204.092 256.565 207.492C254.689 210.834 252.022 213.443 248.563 215.319C245.104 217.137 241.089 218.046 236.516 218.046ZM236.516 207.932C242.964 207.932 246.189 203.799 246.189 195.532C246.189 191.369 245.339 188.262 243.639 186.21C241.997 184.158 239.623 183.132 236.516 183.132C230.068 183.132 226.844 187.265 226.844 195.532C226.844 203.799 230.068 207.932 236.516 207.932Z" fill="white"/>
<path d="M59.1787 245.061C63.8684 245.061 67.4736 246.497 69.9944 249.37C72.5151 252.184 73.7755 256.816 73.7755 263.265V283.58C73.7755 285.632 73.16 287.186 71.9289 288.241C70.6978 289.296 69.1151 289.824 67.1805 289.824C65.3046 289.824 63.7218 289.296 62.4322 288.241C61.1425 287.186 60.4977 285.632 60.4977 283.58V263.089C60.4977 260.275 59.9994 258.311 59.0028 257.197C58.0648 256.024 56.5993 255.438 54.6062 255.438C52.144 255.438 50.1802 256.288 48.7147 257.988C47.2491 259.689 46.5164 262.063 46.5164 265.112V283.58C46.5164 285.632 45.9008 287.186 44.6698 288.241C43.4387 289.296 41.8559 289.824 39.9214 289.824C38.0455 289.824 36.4627 289.296 35.173 288.241C33.8834 287.186 33.2385 285.632 33.2385 283.58V263.089C33.2385 260.275 32.7402 258.311 31.7437 257.197C30.8057 256.024 29.3402 255.438 27.347 255.438C24.8849 255.438 22.9211 256.288 21.4556 257.988C19.99 259.689 19.2572 262.063 19.2572 265.112V283.58C19.2572 285.632 18.6124 287.186 17.3227 288.241C16.0917 289.296 14.5382 289.824 12.6623 289.824C10.7864 289.824 9.20362 289.296 7.91394 288.241C6.62426 287.186 5.97942 285.632 5.97942 283.58V251.305C5.97942 249.37 6.62426 247.875 7.91394 246.819C9.26224 245.764 10.8743 245.236 12.7502 245.236C14.5089 245.236 15.9744 245.764 17.1469 246.819C18.3193 247.816 18.9055 249.223 18.9055 251.041V251.92C20.3124 249.692 22.1297 247.992 24.3573 246.819C26.6436 245.647 29.2229 245.061 32.0954 245.061C35.2024 245.061 37.811 245.705 39.9214 246.995C42.0904 248.227 43.7611 250.249 44.9336 253.063C46.2819 250.601 48.1871 248.666 50.6492 247.259C53.1699 245.793 56.0131 245.061 59.1787 245.061Z" fill="white"/>
<path d="M118.688 245.236C120.74 245.236 122.352 245.793 123.525 246.907C124.756 248.021 125.371 249.546 125.371 251.48V283.756C125.371 285.573 124.726 287.039 123.437 288.153C122.206 289.267 120.594 289.824 118.601 289.824C116.725 289.824 115.23 289.296 114.116 288.241C113.002 287.186 112.445 285.779 112.445 284.02V283.14C111.097 285.368 109.309 287.069 107.081 288.241C104.912 289.414 102.45 290 99.695 290C94.2432 290 90.169 288.505 87.4724 285.515C84.8344 282.466 83.5154 277.893 83.5154 271.796V251.48C83.5154 249.546 84.1016 248.021 85.274 246.907C86.5051 245.793 88.1465 245.236 90.1983 245.236C92.25 245.236 93.8621 245.793 95.0346 246.907C96.207 248.021 96.7932 249.546 96.7932 251.48V272.059C96.7932 274.639 97.3208 276.545 98.376 277.776C99.4898 279.007 101.161 279.623 103.388 279.623C105.968 279.623 108.049 278.743 109.631 276.984C111.273 275.225 112.093 272.91 112.093 270.037V251.48C112.093 249.546 112.68 248.021 113.852 246.907C115.025 245.793 116.637 245.236 118.688 245.236Z" fill="white"/>
<path d="M162.643 245.061C167.802 245.061 171.642 246.585 174.162 249.634C176.683 252.624 177.943 257.168 177.943 263.265V283.58C177.943 285.515 177.328 287.039 176.097 288.153C174.924 289.267 173.312 289.824 171.26 289.824C169.209 289.824 167.597 289.267 166.424 288.153C165.252 287.039 164.666 285.515 164.666 283.58V263.881C164.666 260.949 164.109 258.809 162.995 257.461C161.94 256.112 160.269 255.438 157.983 255.438C155.227 255.438 153 256.317 151.3 258.076C149.658 259.835 148.838 262.18 148.838 265.112V283.58C148.838 285.515 148.251 287.039 147.079 288.153C145.907 289.267 144.294 289.824 142.243 289.824C140.191 289.824 138.55 289.267 137.318 288.153C136.146 287.039 135.56 285.515 135.56 283.58V251.305C135.56 249.487 136.175 248.021 137.406 246.907C138.696 245.793 140.337 245.236 142.331 245.236C144.148 245.236 145.613 245.793 146.727 246.907C147.9 247.963 148.486 249.34 148.486 251.041V252.272C150.01 249.927 151.974 248.139 154.377 246.907C156.84 245.676 159.595 245.061 162.643 245.061Z" fill="white"/>
<path d="M224.699 226.856C226.751 226.856 228.393 227.413 229.624 228.527C230.913 229.641 231.558 231.107 231.558 232.924V283.58C231.558 285.456 230.943 286.981 229.712 288.153C228.539 289.267 226.956 289.824 224.963 289.824C222.97 289.824 221.358 289.267 220.127 288.153C218.955 286.981 218.368 285.456 218.368 283.58V282.877C217.079 285.104 215.232 286.863 212.829 288.153C210.484 289.384 207.816 290 204.827 290C201.134 290 197.821 289.062 194.89 287.186C192.018 285.251 189.761 282.583 188.119 279.183C186.537 275.724 185.745 271.766 185.745 267.31C185.745 262.855 186.537 258.956 188.119 255.614C189.761 252.213 192.018 249.604 194.89 247.787C197.763 245.969 201.075 245.061 204.827 245.061C207.758 245.061 210.396 245.676 212.741 246.907C215.144 248.139 216.991 249.868 218.28 252.096V232.66C218.28 230.902 218.867 229.494 220.039 228.439C221.211 227.384 222.765 226.856 224.699 226.856ZM208.696 279.886C211.803 279.886 214.177 278.831 215.818 276.72C217.518 274.551 218.368 271.473 218.368 267.486C218.368 263.499 217.518 260.451 215.818 258.34C214.177 256.229 211.803 255.174 208.696 255.174C205.589 255.174 203.185 256.229 201.485 258.34C199.785 260.392 198.935 263.382 198.935 267.31C198.935 271.297 199.785 274.405 201.485 276.633C203.185 278.802 205.589 279.886 208.696 279.886Z" fill="white"/>
<path d="M262.535 290C257.963 290 253.947 289.091 250.488 287.274C247.03 285.398 244.362 282.789 242.487 279.447C240.611 276.046 239.673 272.059 239.673 267.486C239.673 262.913 240.611 258.956 242.487 255.614C244.362 252.213 247.03 249.604 250.488 247.787C253.947 245.969 257.963 245.061 262.535 245.061C267.108 245.061 271.123 245.969 274.582 247.787C278.041 249.604 280.708 252.213 282.584 255.614C284.46 258.956 285.398 262.913 285.398 267.486C285.398 272.059 284.46 276.046 282.584 279.447C280.708 282.789 278.041 285.398 274.582 287.274C271.123 289.091 267.108 290 262.535 290ZM262.535 279.886C268.984 279.886 272.208 275.753 272.208 267.486C272.208 263.324 271.358 260.216 269.658 258.164C268.016 256.112 265.642 255.086 262.535 255.086C256.087 255.086 252.863 259.22 252.863 267.486C252.863 275.753 256.087 279.886 262.535 279.886Z" fill="white"/>
</svg>
