<svg width="159" height="53" viewBox="0 0 159 53" fill="none" xmlns="http://www.w3.org/2000/svg">
<path d="M59.8176 15.624C60.0576 15.976 60.1776 16.32 60.1776 16.656C60.1776 17.104 59.9936 17.472 59.6256 17.76C59.2736 18.048 58.8576 18.192 58.3776 18.192C58.0736 18.192 57.7776 18.12 57.4896 17.976C57.2016 17.832 56.9616 17.608 56.7696 17.304L53.6016 12.6C53.3296 12.184 53.0416 11.888 52.7376 11.712C52.4336 11.52 52.0496 11.424 51.5856 11.424H49.6416V16.272C49.6416 16.848 49.4736 17.304 49.1376 17.64C48.8176 17.976 48.3776 18.144 47.8176 18.144C47.2416 18.144 46.7856 17.976 46.4496 17.64C46.1136 17.304 45.9456 16.848 45.9456 16.272V2.832C45.9456 2.272 46.0976 1.84 46.4016 1.536C46.7056 1.232 47.1376 1.08 47.6976 1.08H53.7216C55.7056 1.08 57.2016 1.52 58.2096 2.4C59.2336 3.264 59.7456 4.52 59.7456 6.168C59.7456 7.464 59.3856 8.544 58.6656 9.408C57.9456 10.272 56.9296 10.84 55.6176 11.112C56.0976 11.208 56.5216 11.4 56.8896 11.688C57.2736 11.96 57.6416 12.36 57.9936 12.888L59.8176 15.624ZM53.1696 8.592C54.2416 8.592 55.0176 8.408 55.4976 8.04C55.9776 7.656 56.2176 7.064 56.2176 6.264C56.2176 5.448 55.9776 4.856 55.4976 4.488C55.0176 4.12 54.2416 3.936 53.1696 3.936H49.5936V8.592H53.1696ZM64.3098 18.144C63.7818 18.144 63.3418 18 62.9898 17.712C62.6538 17.424 62.4858 17 62.4858 16.44V7.68C62.4858 7.12 62.6618 6.696 63.0138 6.408C63.3658 6.12 63.7978 5.976 64.3098 5.976C64.8218 5.976 65.2458 6.12 65.5818 6.408C65.9338 6.696 66.1098 7.12 66.1098 7.68V16.44C66.1098 17 65.9338 17.424 65.5818 17.712C65.2458 18 64.8218 18.144 64.3098 18.144ZM64.3098 4.056C63.6698 4.056 63.1658 3.896 62.7978 3.576C62.4298 3.24 62.2458 2.792 62.2458 2.232C62.2458 1.672 62.4298 1.232 62.7978 0.912C63.1658 0.591999 63.6698 0.431999 64.3098 0.431999C64.9338 0.431999 65.4298 0.599999 65.7978 0.935999C66.1818 1.256 66.3738 1.688 66.3738 2.232C66.3738 2.792 66.1898 3.24 65.8218 3.576C65.4538 3.896 64.9498 4.056 64.3098 4.056ZM74.5482 18.192C73.3002 18.192 72.2042 17.944 71.2602 17.448C70.3162 16.936 69.5882 16.224 69.0762 15.312C68.5642 14.384 68.3082 13.296 68.3082 12.048C68.3082 10.8 68.5642 9.72 69.0762 8.808C69.5882 7.88 70.3162 7.168 71.2602 6.672C72.2042 6.176 73.3002 5.928 74.5482 5.928C75.7962 5.928 76.8922 6.176 77.8362 6.672C78.7802 7.168 79.5082 7.88 80.0202 8.808C80.5322 9.72 80.7882 10.8 80.7882 12.048C80.7882 13.296 80.5322 14.384 80.0202 15.312C79.5082 16.224 78.7802 16.936 77.8362 17.448C76.8922 17.944 75.7962 18.192 74.5482 18.192ZM74.5482 15.432C76.3082 15.432 77.1882 14.304 77.1882 12.048C77.1882 10.912 76.9562 10.064 76.4922 9.504C76.0442 8.944 75.3962 8.664 74.5482 8.664C72.7882 8.664 71.9082 9.792 71.9082 12.048C71.9082 14.304 72.7882 15.432 74.5482 15.432ZM99.7527 0.959999C100.313 0.959999 100.761 1.112 101.097 1.416C101.449 1.72 101.625 2.12 101.625 2.616V16.44C101.625 16.952 101.457 17.368 101.121 17.688C100.801 17.992 100.369 18.144 99.8247 18.144C99.2807 18.144 98.8407 17.992 98.5047 17.688C98.1847 17.368 98.0247 16.952 98.0247 16.44V16.248C97.6727 16.856 97.1687 17.336 96.5127 17.688C95.8727 18.024 95.1447 18.192 94.3287 18.192C93.3207 18.192 92.4167 17.936 91.6167 17.424C90.8327 16.896 90.2167 16.168 89.7687 15.24C89.3367 14.296 89.1207 13.216 89.1207 12C89.1207 10.784 89.3367 9.72 89.7687 8.808C90.2167 7.88 90.8327 7.168 91.6167 6.672C92.4007 6.176 93.3047 5.928 94.3287 5.928C95.1287 5.928 95.8487 6.096 96.4887 6.432C97.1447 6.768 97.6487 7.24 98.0007 7.848V2.544C98.0007 2.064 98.1607 1.68 98.4807 1.392C98.8007 1.104 99.2247 0.959999 99.7527 0.959999ZM95.3847 15.432C96.2327 15.432 96.8807 15.144 97.3287 14.568C97.7927 13.976 98.0247 13.136 98.0247 12.048C98.0247 10.96 97.7927 10.128 97.3287 9.552C96.8807 8.976 96.2327 8.688 95.3847 8.688C94.5367 8.688 93.8807 8.976 93.4167 9.552C92.9527 10.112 92.7207 10.928 92.7207 12C92.7207 13.088 92.9527 13.936 93.4167 14.544C93.8807 15.136 94.5367 15.432 95.3847 15.432ZM110.079 18.192C108.831 18.192 107.735 17.944 106.791 17.448C105.847 16.936 105.119 16.224 104.607 15.312C104.095 14.384 103.839 13.296 103.839 12.048C103.839 10.8 104.095 9.72 104.607 8.808C105.119 7.88 105.847 7.168 106.791 6.672C107.735 6.176 108.831 5.928 110.079 5.928C111.327 5.928 112.423 6.176 113.367 6.672C114.311 7.168 115.039 7.88 115.551 8.808C116.063 9.72 116.319 10.8 116.319 12.048C116.319 13.296 116.063 14.384 115.551 15.312C115.039 16.224 114.311 16.936 113.367 17.448C112.423 17.944 111.327 18.192 110.079 18.192ZM110.079 15.432C111.839 15.432 112.719 14.304 112.719 12.048C112.719 10.912 112.487 10.064 112.023 9.504C111.575 8.944 110.927 8.664 110.079 8.664C108.319 8.664 107.439 9.792 107.439 12.048C107.439 14.304 108.319 15.432 110.079 15.432ZM131.612 18.216C130.348 18.216 129.172 18.072 128.084 17.784C126.996 17.48 126.108 17.056 125.42 16.512C125.18 16.336 125.004 16.152 124.892 15.96C124.796 15.752 124.748 15.496 124.748 15.192C124.748 14.792 124.868 14.44 125.108 14.136C125.364 13.832 125.652 13.68 125.972 13.68C126.148 13.68 126.316 13.712 126.476 13.776C126.652 13.824 126.86 13.92 127.1 14.064C127.788 14.496 128.484 14.816 129.188 15.024C129.892 15.216 130.668 15.312 131.516 15.312C132.572 15.312 133.38 15.136 133.94 14.784C134.5 14.432 134.78 13.928 134.78 13.272C134.78 12.776 134.516 12.376 133.988 12.072C133.476 11.768 132.556 11.48 131.228 11.208C129.74 10.904 128.548 10.536 127.652 10.104C126.772 9.672 126.124 9.136 125.708 8.496C125.308 7.856 125.108 7.08 125.108 6.168C125.108 5.16 125.396 4.256 125.972 3.456C126.564 2.64 127.372 2.008 128.396 1.56C129.436 1.096 130.604 0.863999 131.9 0.863999C134.172 0.863999 136.044 1.432 137.516 2.568C137.756 2.76 137.924 2.96 138.02 3.168C138.132 3.36 138.188 3.6 138.188 3.888C138.188 4.288 138.06 4.64 137.804 4.944C137.564 5.248 137.284 5.4 136.964 5.4C136.788 5.4 136.62 5.376 136.46 5.328C136.316 5.28 136.108 5.176 135.836 5.016C135.18 4.6 134.572 4.288 134.012 4.08C133.468 3.872 132.772 3.768 131.924 3.768C130.948 3.768 130.18 3.96 129.62 4.344C129.06 4.712 128.78 5.224 128.78 5.88C128.78 6.264 128.884 6.584 129.092 6.84C129.316 7.08 129.676 7.296 130.172 7.488C130.684 7.68 131.404 7.88 132.332 8.088C134.508 8.568 136.068 9.184 137.012 9.936C137.972 10.688 138.452 11.72 138.452 13.032C138.452 14.056 138.164 14.96 137.588 15.744C137.028 16.528 136.228 17.136 135.188 17.568C134.164 18 132.972 18.216 131.612 18.216ZM150.389 5.976C150.949 5.976 151.389 6.128 151.709 6.432C152.045 6.736 152.213 7.152 152.213 7.68V16.488C152.213 16.984 152.037 17.384 151.685 17.688C151.349 17.992 150.909 18.144 150.365 18.144C149.853 18.144 149.445 18 149.141 17.712C148.837 17.424 148.685 17.04 148.685 16.56V16.32C148.317 16.928 147.829 17.392 147.221 17.712C146.629 18.032 145.957 18.192 145.205 18.192C143.717 18.192 142.605 17.784 141.869 16.968C141.149 16.136 140.789 14.888 140.789 13.224V7.68C140.789 7.152 140.949 6.736 141.269 6.432C141.605 6.128 142.053 5.976 142.613 5.976C143.173 5.976 143.613 6.128 143.933 6.432C144.253 6.736 144.413 7.152 144.413 7.68V13.296C144.413 14 144.557 14.52 144.845 14.856C145.149 15.192 145.605 15.36 146.213 15.36C146.917 15.36 147.485 15.12 147.917 14.64C148.365 14.16 148.589 13.528 148.589 12.744V7.68C148.589 7.152 148.749 6.736 149.069 6.432C149.389 6.128 149.829 5.976 150.389 5.976ZM156.818 18.144C156.29 18.144 155.85 18 155.498 17.712C155.162 17.424 154.994 17 154.994 16.44V2.664C154.994 2.104 155.162 1.68 155.498 1.392C155.85 1.104 156.29 0.959999 156.818 0.959999C157.33 0.959999 157.754 1.104 158.09 1.392C158.442 1.68 158.618 2.104 158.618 2.664V16.44C158.618 17 158.442 17.424 158.09 17.712C157.754 18 157.33 18.144 156.818 18.144ZM6.77875 52.192C5.56275 52.192 4.40275 52.024 3.29875 51.688C2.21075 51.352 1.33875 50.888 0.68275 50.296C0.37875 50.04 0.22675 49.712 0.22675 49.312C0.22675 49.024 0.30675 48.784 0.46675 48.592C0.62675 48.384 0.81875 48.28 1.04275 48.28C1.26675 48.28 1.53875 48.384 1.85875 48.592C3.28275 49.648 4.90675 50.176 6.73075 50.176C8.01075 50.176 8.99475 49.936 9.68275 49.456C10.3708 48.976 10.7148 48.288 10.7148 47.392C10.7148 46.688 10.3948 46.16 9.75475 45.808C9.11475 45.456 8.09075 45.12 6.68275 44.8C5.33875 44.512 4.23475 44.184 3.37075 43.816C2.50675 43.448 1.82675 42.952 1.33075 42.328C0.85075 41.688 0.61075 40.88 0.61075 39.904C0.61075 38.928 0.87475 38.064 1.40275 37.312C1.94675 36.544 2.69875 35.952 3.65875 35.536C4.61875 35.104 5.71475 34.888 6.94675 34.888C8.08275 34.888 9.13075 35.048 10.0908 35.368C11.0508 35.688 11.8668 36.16 12.5388 36.784C12.8588 37.056 13.0188 37.384 13.0188 37.768C13.0188 38.04 12.9308 38.28 12.7548 38.488C12.5948 38.696 12.4028 38.8 12.1788 38.8C11.9708 38.8 11.7068 38.696 11.3868 38.488C10.6508 37.928 9.95475 37.528 9.29875 37.288C8.65875 37.032 7.88275 36.904 6.97075 36.904C5.73875 36.904 4.77875 37.16 4.09075 37.672C3.40275 38.168 3.05875 38.864 3.05875 39.76C3.05875 40.528 3.36275 41.112 3.97075 41.512C4.57875 41.896 5.55475 42.248 6.89875 42.568C8.30675 42.888 9.44275 43.224 10.3068 43.576C11.1868 43.912 11.8828 44.384 12.3948 44.992C12.9228 45.584 13.1868 46.352 13.1868 47.296C13.1868 48.256 12.9148 49.112 12.3708 49.864C11.8428 50.6 11.0908 51.176 10.1148 51.592C9.15475 51.992 8.04275 52.192 6.77875 52.192ZM20.8656 40C22.4176 40 23.5696 40.392 24.3216 41.176C25.0896 41.96 25.4736 43.152 25.4736 44.752V50.968C25.4736 51.336 25.3696 51.624 25.1616 51.832C24.9536 52.024 24.6656 52.12 24.2976 52.12C23.9456 52.12 23.6656 52.016 23.4576 51.808C23.2496 51.6 23.1456 51.32 23.1456 50.968V50.08C22.8416 50.752 22.3856 51.272 21.7776 51.64C21.1856 51.992 20.4896 52.168 19.6896 52.168C18.9216 52.168 18.2176 52.016 17.5776 51.712C16.9536 51.392 16.4576 50.96 16.0896 50.416C15.7216 49.872 15.5376 49.256 15.5376 48.568C15.5216 47.704 15.7376 47.032 16.1856 46.552C16.6336 46.056 17.3616 45.704 18.3696 45.496C19.3776 45.272 20.7776 45.16 22.5696 45.16H23.1216V44.464C23.1216 43.568 22.9376 42.92 22.5696 42.52C22.2016 42.12 21.6096 41.92 20.7936 41.92C20.2336 41.92 19.7056 41.992 19.2096 42.136C18.7136 42.28 18.1696 42.488 17.5776 42.76C17.1456 43 16.8416 43.12 16.6656 43.12C16.4256 43.12 16.2256 43.032 16.0656 42.856C15.9216 42.68 15.8496 42.456 15.8496 42.184C15.8496 41.944 15.9136 41.736 16.0416 41.56C16.1856 41.368 16.4096 41.184 16.7136 41.008C17.2736 40.704 17.9296 40.464 18.6816 40.288C19.4336 40.096 20.1616 40 20.8656 40ZM20.1216 50.368C21.0016 50.368 21.7216 50.072 22.2816 49.48C22.8416 48.872 23.1216 48.096 23.1216 47.152V46.528H22.6896C21.4416 46.528 20.4816 46.584 19.8096 46.696C19.1376 46.808 18.6576 47 18.3696 47.272C18.0816 47.528 17.9376 47.904 17.9376 48.4C17.9376 48.976 18.1456 49.448 18.5616 49.816C18.9776 50.184 19.4976 50.368 20.1216 50.368ZM35.1014 40C37.9014 40 39.3014 41.576 39.3014 44.728V50.968C39.3014 51.336 39.1894 51.624 38.9654 51.832C38.7574 52.024 38.4614 52.12 38.0774 52.12C37.7094 52.12 37.4134 52.016 37.1894 51.808C36.9814 51.6 36.8774 51.32 36.8774 50.968V44.848C36.8774 43.856 36.6774 43.128 36.2774 42.664C35.8934 42.2 35.2854 41.968 34.4534 41.968C33.4774 41.968 32.6934 42.272 32.1014 42.88C31.5094 43.488 31.2134 44.304 31.2134 45.328V50.968C31.2134 51.32 31.1014 51.6 30.8774 51.808C30.6694 52.016 30.3814 52.12 30.0134 52.12C29.6454 52.12 29.3494 52.016 29.1254 51.808C28.9014 51.6 28.7894 51.32 28.7894 50.968V41.2C28.7894 40.864 28.9014 40.592 29.1254 40.384C29.3654 40.16 29.6614 40.048 30.0134 40.048C30.3654 40.048 30.6454 40.152 30.8534 40.36C31.0614 40.568 31.1654 40.84 31.1654 41.176V42.16C31.5494 41.456 32.0854 40.92 32.7734 40.552C33.4614 40.184 34.2374 40 35.1014 40ZM48.3535 50.272C48.7055 50.304 48.9535 50.4 49.0975 50.56C49.2575 50.704 49.3375 50.912 49.3375 51.184C49.3375 51.504 49.2095 51.752 48.9535 51.928C48.7135 52.088 48.3535 52.152 47.8735 52.12L47.2255 52.072C45.9295 51.976 44.9615 51.584 44.3215 50.896C43.6815 50.192 43.3615 49.16 43.3615 47.8V42.16H41.9215C41.2175 42.16 40.8655 41.848 40.8655 41.224C40.8655 40.936 40.9535 40.712 41.1295 40.552C41.3215 40.376 41.5855 40.288 41.9215 40.288H43.3615V37.816C43.3615 37.448 43.4655 37.16 43.6735 36.952C43.8975 36.744 44.1935 36.64 44.5615 36.64C44.9295 36.64 45.2255 36.744 45.4495 36.952C45.6735 37.16 45.7855 37.448 45.7855 37.816V40.288H48.1615C48.4975 40.288 48.7535 40.376 48.9295 40.552C49.1215 40.712 49.2175 40.936 49.2175 41.224C49.2175 41.528 49.1215 41.76 48.9295 41.92C48.7535 42.08 48.4975 42.16 48.1615 42.16H45.7855V47.968C45.7855 48.72 45.9375 49.272 46.2415 49.624C46.5615 49.976 47.0415 50.176 47.6815 50.224L48.3535 50.272ZM55.9984 40C57.5504 40 58.7024 40.392 59.4544 41.176C60.2224 41.96 60.6064 43.152 60.6064 44.752V50.968C60.6064 51.336 60.5024 51.624 60.2944 51.832C60.0864 52.024 59.7984 52.12 59.4304 52.12C59.0784 52.12 58.7984 52.016 58.5904 51.808C58.3824 51.6 58.2784 51.32 58.2784 50.968V50.08C57.9744 50.752 57.5184 51.272 56.9104 51.64C56.3184 51.992 55.6224 52.168 54.8224 52.168C54.0544 52.168 53.3504 52.016 52.7104 51.712C52.0864 51.392 51.5904 50.96 51.2224 50.416C50.8544 49.872 50.6704 49.256 50.6704 48.568C50.6544 47.704 50.8704 47.032 51.3184 46.552C51.7664 46.056 52.4944 45.704 53.5024 45.496C54.5104 45.272 55.9104 45.16 57.7024 45.16H58.2544V44.464C58.2544 43.568 58.0704 42.92 57.7024 42.52C57.3344 42.12 56.7424 41.92 55.9264 41.92C55.3664 41.92 54.8384 41.992 54.3424 42.136C53.8464 42.28 53.3024 42.488 52.7104 42.76C52.2784 43 51.9744 43.12 51.7984 43.12C51.5584 43.12 51.3584 43.032 51.1984 42.856C51.0544 42.68 50.9824 42.456 50.9824 42.184C50.9824 41.944 51.0464 41.736 51.1744 41.56C51.3184 41.368 51.5424 41.184 51.8464 41.008C52.4064 40.704 53.0624 40.464 53.8144 40.288C54.5664 40.096 55.2944 40 55.9984 40ZM55.2544 50.368C56.1344 50.368 56.8544 50.072 57.4144 49.48C57.9744 48.872 58.2544 48.096 58.2544 47.152V46.528H57.8224C56.5744 46.528 55.6144 46.584 54.9424 46.696C54.2704 46.808 53.7904 47 53.5024 47.272C53.2144 47.528 53.0704 47.904 53.0704 48.4C53.0704 48.976 53.2784 49.448 53.6944 49.816C54.1104 50.184 54.6304 50.368 55.2544 50.368ZM77.9063 52.192C76.2903 52.192 74.8823 51.848 73.6823 51.16C72.4823 50.456 71.5623 49.456 70.9223 48.16C70.2823 46.848 69.9623 45.304 69.9623 43.528C69.9623 41.768 70.2823 40.24 70.9223 38.944C71.5623 37.632 72.4823 36.632 73.6823 35.944C74.8823 35.24 76.2903 34.888 77.9063 34.888C78.9623 34.888 79.9623 35.056 80.9063 35.392C81.8503 35.712 82.6743 36.184 83.3783 36.808C83.6823 37.048 83.8343 37.368 83.8343 37.768C83.8343 38.056 83.7543 38.304 83.5943 38.512C83.4343 38.704 83.2423 38.8 83.0183 38.8C82.7463 38.8 82.4823 38.696 82.2263 38.488C81.4583 37.912 80.7543 37.512 80.1143 37.288C79.4903 37.048 78.7783 36.928 77.9783 36.928C76.2183 36.928 74.8663 37.496 73.9223 38.632C72.9783 39.768 72.5063 41.4 72.5063 43.528C72.5063 45.672 72.9783 47.312 73.9223 48.448C74.8663 49.584 76.2183 50.152 77.9783 50.152C78.7463 50.152 79.4423 50.032 80.0663 49.792C80.7063 49.552 81.4263 49.152 82.2263 48.592C82.5463 48.384 82.8103 48.28 83.0183 48.28C83.2423 48.28 83.4343 48.384 83.5943 48.592C83.7543 48.784 83.8343 49.024 83.8343 49.312C83.8343 49.712 83.6823 50.032 83.3783 50.272C82.6743 50.896 81.8503 51.376 80.9063 51.712C79.9623 52.032 78.9623 52.192 77.9063 52.192ZM91.1781 40C92.7301 40 93.8821 40.392 94.6341 41.176C95.4021 41.96 95.7861 43.152 95.7861 44.752V50.968C95.7861 51.336 95.6821 51.624 95.4741 51.832C95.2661 52.024 94.9781 52.12 94.6101 52.12C94.2581 52.12 93.9781 52.016 93.7701 51.808C93.5621 51.6 93.4581 51.32 93.4581 50.968V50.08C93.1541 50.752 92.6981 51.272 92.0901 51.64C91.4981 51.992 90.8021 52.168 90.0021 52.168C89.2341 52.168 88.5301 52.016 87.8901 51.712C87.2661 51.392 86.7701 50.96 86.4021 50.416C86.0341 49.872 85.8501 49.256 85.8501 48.568C85.8341 47.704 86.0501 47.032 86.4981 46.552C86.9461 46.056 87.6741 45.704 88.6821 45.496C89.6901 45.272 91.0901 45.16 92.8821 45.16H93.4341V44.464C93.4341 43.568 93.2501 42.92 92.8821 42.52C92.5141 42.12 91.9221 41.92 91.1061 41.92C90.5461 41.92 90.0181 41.992 89.5221 42.136C89.0261 42.28 88.4821 42.488 87.8901 42.76C87.4581 43 87.1541 43.12 86.9781 43.12C86.7381 43.12 86.5381 43.032 86.3781 42.856C86.2341 42.68 86.1621 42.456 86.1621 42.184C86.1621 41.944 86.2261 41.736 86.3541 41.56C86.4981 41.368 86.7221 41.184 87.0261 41.008C87.5861 40.704 88.2421 40.464 88.9941 40.288C89.7461 40.096 90.4741 40 91.1781 40ZM90.4341 50.368C91.3141 50.368 92.0341 50.072 92.5941 49.48C93.1541 48.872 93.4341 48.096 93.4341 47.152V46.528H93.0021C91.7541 46.528 90.7941 46.584 90.1221 46.696C89.4501 46.808 88.9701 47 88.6821 47.272C88.3941 47.528 88.2501 47.904 88.2501 48.4C88.2501 48.976 88.4581 49.448 88.8741 49.816C89.2901 50.184 89.8101 50.368 90.4341 50.368ZM104.838 50.272C105.19 50.304 105.438 50.4 105.582 50.56C105.742 50.704 105.822 50.912 105.822 51.184C105.822 51.504 105.694 51.752 105.438 51.928C105.198 52.088 104.838 52.152 104.358 52.12L103.71 52.072C102.414 51.976 101.446 51.584 100.806 50.896C100.166 50.192 99.8459 49.16 99.8459 47.8V42.16H98.4059C97.7019 42.16 97.3499 41.848 97.3499 41.224C97.3499 40.936 97.4379 40.712 97.6139 40.552C97.8059 40.376 98.0699 40.288 98.4059 40.288H99.8459V37.816C99.8459 37.448 99.9499 37.16 100.158 36.952C100.382 36.744 100.678 36.64 101.046 36.64C101.414 36.64 101.71 36.744 101.934 36.952C102.158 37.16 102.27 37.448 102.27 37.816V40.288H104.646C104.982 40.288 105.238 40.376 105.414 40.552C105.606 40.712 105.702 40.936 105.702 41.224C105.702 41.528 105.606 41.76 105.414 41.92C105.238 42.08 104.982 42.16 104.646 42.16H102.27V47.968C102.27 48.72 102.422 49.272 102.726 49.624C103.046 49.976 103.526 50.176 104.166 50.224L104.838 50.272ZM112.483 40C114.035 40 115.187 40.392 115.939 41.176C116.707 41.96 117.091 43.152 117.091 44.752V50.968C117.091 51.336 116.987 51.624 116.779 51.832C116.571 52.024 116.283 52.12 115.915 52.12C115.563 52.12 115.283 52.016 115.075 51.808C114.867 51.6 114.763 51.32 114.763 50.968V50.08C114.459 50.752 114.003 51.272 113.395 51.64C112.803 51.992 112.107 52.168 111.307 52.168C110.539 52.168 109.835 52.016 109.195 51.712C108.571 51.392 108.075 50.96 107.707 50.416C107.339 49.872 107.155 49.256 107.155 48.568C107.139 47.704 107.355 47.032 107.803 46.552C108.251 46.056 108.979 45.704 109.987 45.496C110.995 45.272 112.395 45.16 114.187 45.16H114.739V44.464C114.739 43.568 114.555 42.92 114.187 42.52C113.819 42.12 113.227 41.92 112.411 41.92C111.851 41.92 111.323 41.992 110.827 42.136C110.331 42.28 109.787 42.488 109.195 42.76C108.763 43 108.459 43.12 108.283 43.12C108.043 43.12 107.843 43.032 107.683 42.856C107.539 42.68 107.467 42.456 107.467 42.184C107.467 41.944 107.531 41.736 107.659 41.56C107.803 41.368 108.027 41.184 108.331 41.008C108.891 40.704 109.547 40.464 110.299 40.288C111.051 40.096 111.779 40 112.483 40ZM111.739 50.368C112.619 50.368 113.339 50.072 113.899 49.48C114.459 48.872 114.739 48.096 114.739 47.152V46.528H114.307C113.059 46.528 112.099 46.584 111.427 46.696C110.755 46.808 110.275 47 109.987 47.272C109.699 47.528 109.555 47.904 109.555 48.4C109.555 48.976 109.763 49.448 110.179 49.816C110.595 50.184 111.115 50.368 111.739 50.368ZM126.551 40.048C127.319 40 127.703 40.328 127.703 41.032C127.703 41.384 127.615 41.648 127.439 41.824C127.263 42 126.959 42.104 126.527 42.136L125.807 42.208C124.799 42.304 124.047 42.656 123.551 43.264C123.071 43.872 122.831 44.608 122.831 45.472V50.968C122.831 51.352 122.719 51.64 122.495 51.832C122.271 52.024 121.983 52.12 121.631 52.12C121.279 52.12 120.983 52.024 120.743 51.832C120.519 51.64 120.407 51.352 120.407 50.968V41.2C120.407 40.832 120.519 40.552 120.743 40.36C120.983 40.152 121.279 40.048 121.631 40.048C121.951 40.048 122.215 40.152 122.423 40.36C122.647 40.552 122.759 40.824 122.759 41.176V42.328C123.079 41.624 123.543 41.088 124.151 40.72C124.759 40.352 125.447 40.136 126.215 40.072L126.551 40.048ZM130.42 52.12C130.068 52.12 129.772 52.024 129.532 51.832C129.308 51.64 129.196 51.352 129.196 50.968V41.224C129.196 40.84 129.308 40.552 129.532 40.36C129.772 40.152 130.068 40.048 130.42 40.048C130.772 40.048 131.06 40.152 131.284 40.36C131.508 40.552 131.62 40.84 131.62 41.224V50.968C131.62 51.352 131.508 51.64 131.284 51.832C131.06 52.024 130.772 52.12 130.42 52.12ZM130.42 37.696C129.956 37.696 129.588 37.568 129.316 37.312C129.044 37.056 128.908 36.72 128.908 36.304C128.908 35.888 129.044 35.56 129.316 35.32C129.588 35.064 129.956 34.936 130.42 34.936C130.868 34.936 131.228 35.064 131.5 35.32C131.788 35.56 131.932 35.888 131.932 36.304C131.932 36.72 131.796 37.056 131.524 37.312C131.252 37.568 130.884 37.696 130.42 37.696ZM141.32 40C144.12 40 145.52 41.576 145.52 44.728V50.968C145.52 51.336 145.408 51.624 145.184 51.832C144.976 52.024 144.68 52.12 144.296 52.12C143.928 52.12 143.632 52.016 143.408 51.808C143.2 51.6 143.096 51.32 143.096 50.968V44.848C143.096 43.856 142.896 43.128 142.496 42.664C142.112 42.2 141.504 41.968 140.672 41.968C139.696 41.968 138.912 42.272 138.32 42.88C137.728 43.488 137.432 44.304 137.432 45.328V50.968C137.432 51.32 137.32 51.6 137.096 51.808C136.888 52.016 136.6 52.12 136.232 52.12C135.864 52.12 135.568 52.016 135.344 51.808C135.12 51.6 135.008 51.32 135.008 50.968V41.2C135.008 40.864 135.12 40.592 135.344 40.384C135.584 40.16 135.88 40.048 136.232 40.048C136.584 40.048 136.864 40.152 137.072 40.36C137.28 40.568 137.384 40.84 137.384 41.176V42.16C137.768 41.456 138.304 40.92 138.992 40.552C139.68 40.184 140.456 40 141.32 40ZM153.756 40C155.308 40 156.46 40.392 157.212 41.176C157.98 41.96 158.364 43.152 158.364 44.752V50.968C158.364 51.336 158.26 51.624 158.052 51.832C157.844 52.024 157.556 52.12 157.188 52.12C156.836 52.12 156.556 52.016 156.348 51.808C156.14 51.6 156.036 51.32 156.036 50.968V50.08C155.732 50.752 155.276 51.272 154.668 51.64C154.076 51.992 153.38 52.168 152.58 52.168C151.812 52.168 151.108 52.016 150.468 51.712C149.844 51.392 149.348 50.96 148.98 50.416C148.612 49.872 148.428 49.256 148.428 48.568C148.412 47.704 148.628 47.032 149.076 46.552C149.524 46.056 150.252 45.704 151.26 45.496C152.268 45.272 153.668 45.16 155.46 45.16H156.012V44.464C156.012 43.568 155.828 42.92 155.46 42.52C155.092 42.12 154.5 41.92 153.684 41.92C153.124 41.92 152.596 41.992 152.1 42.136C151.604 42.28 151.06 42.488 150.468 42.76C150.036 43 149.732 43.12 149.556 43.12C149.316 43.12 149.116 43.032 148.956 42.856C148.812 42.68 148.74 42.456 148.74 42.184C148.74 41.944 148.804 41.736 148.932 41.56C149.076 41.368 149.3 41.184 149.604 41.008C150.164 40.704 150.82 40.464 151.572 40.288C152.324 40.096 153.052 40 153.756 40ZM153.012 50.368C153.892 50.368 154.612 50.072 155.172 49.48C155.732 48.872 156.012 48.096 156.012 47.152V46.528H155.58C154.332 46.528 153.372 46.584 152.7 46.696C152.028 46.808 151.548 47 151.26 47.272C150.972 47.528 150.828 47.904 150.828 48.4C150.828 48.976 151.036 49.448 151.452 49.816C151.868 50.184 152.388 50.368 153.012 50.368Z" fill="white"/>
<path d="M59.8176 15.624C60.0576 15.976 60.1776 16.32 60.1776 16.656C60.1776 17.104 59.9936 17.472 59.6256 17.76C59.2736 18.048 58.8576 18.192 58.3776 18.192C58.0736 18.192 57.7776 18.12 57.4896 17.976C57.2016 17.832 56.9616 17.608 56.7696 17.304L53.6016 12.6C53.3296 12.184 53.0416 11.888 52.7376 11.712C52.4336 11.52 52.0496 11.424 51.5856 11.424H49.6416V16.272C49.6416 16.848 49.4736 17.304 49.1376 17.64C48.8176 17.976 48.3776 18.144 47.8176 18.144C47.2416 18.144 46.7856 17.976 46.4496 17.64C46.1136 17.304 45.9456 16.848 45.9456 16.272V2.832C45.9456 2.272 46.0976 1.84 46.4016 1.536C46.7056 1.232 47.1376 1.08 47.6976 1.08H53.7216C55.7056 1.08 57.2016 1.52 58.2096 2.4C59.2336 3.264 59.7456 4.52 59.7456 6.168C59.7456 7.464 59.3856 8.544 58.6656 9.408C57.9456 10.272 56.9296 10.84 55.6176 11.112C56.0976 11.208 56.5216 11.4 56.8896 11.688C57.2736 11.96 57.6416 12.36 57.9936 12.888L59.8176 15.624ZM53.1696 8.592C54.2416 8.592 55.0176 8.408 55.4976 8.04C55.9776 7.656 56.2176 7.064 56.2176 6.264C56.2176 5.448 55.9776 4.856 55.4976 4.488C55.0176 4.12 54.2416 3.936 53.1696 3.936H49.5936V8.592H53.1696ZM64.3098 18.144C63.7818 18.144 63.3418 18 62.9898 17.712C62.6538 17.424 62.4858 17 62.4858 16.44V7.68C62.4858 7.12 62.6618 6.696 63.0138 6.408C63.3658 6.12 63.7978 5.976 64.3098 5.976C64.8218 5.976 65.2458 6.12 65.5818 6.408C65.9338 6.696 66.1098 7.12 66.1098 7.68V16.44C66.1098 17 65.9338 17.424 65.5818 17.712C65.2458 18 64.8218 18.144 64.3098 18.144ZM64.3098 4.056C63.6698 4.056 63.1658 3.896 62.7978 3.576C62.4298 3.24 62.2458 2.792 62.2458 2.232C62.2458 1.672 62.4298 1.232 62.7978 0.912C63.1658 0.591999 63.6698 0.431999 64.3098 0.431999C64.9338 0.431999 65.4298 0.599999 65.7978 0.935999C66.1818 1.256 66.3738 1.688 66.3738 2.232C66.3738 2.792 66.1898 3.24 65.8218 3.576C65.4538 3.896 64.9498 4.056 64.3098 4.056ZM74.5482 18.192C73.3002 18.192 72.2042 17.944 71.2602 17.448C70.3162 16.936 69.5882 16.224 69.0762 15.312C68.5642 14.384 68.3082 13.296 68.3082 12.048C68.3082 10.8 68.5642 9.72 69.0762 8.808C69.5882 7.88 70.3162 7.168 71.2602 6.672C72.2042 6.176 73.3002 5.928 74.5482 5.928C75.7962 5.928 76.8922 6.176 77.8362 6.672C78.7802 7.168 79.5082 7.88 80.0202 8.808C80.5322 9.72 80.7882 10.8 80.7882 12.048C80.7882 13.296 80.5322 14.384 80.0202 15.312C79.5082 16.224 78.7802 16.936 77.8362 17.448C76.8922 17.944 75.7962 18.192 74.5482 18.192ZM74.5482 15.432C76.3082 15.432 77.1882 14.304 77.1882 12.048C77.1882 10.912 76.9562 10.064 76.4922 9.504C76.0442 8.944 75.3962 8.664 74.5482 8.664C72.7882 8.664 71.9082 9.792 71.9082 12.048C71.9082 14.304 72.7882 15.432 74.5482 15.432ZM99.7527 0.959999C100.313 0.959999 100.761 1.112 101.097 1.416C101.449 1.72 101.625 2.12 101.625 2.616V16.44C101.625 16.952 101.457 17.368 101.121 17.688C100.801 17.992 100.369 18.144 99.8247 18.144C99.2807 18.144 98.8407 17.992 98.5047 17.688C98.1847 17.368 98.0247 16.952 98.0247 16.44V16.248C97.6727 16.856 97.1687 17.336 96.5127 17.688C95.8727 18.024 95.1447 18.192 94.3287 18.192C93.3207 18.192 92.4167 17.936 91.6167 17.424C90.8327 16.896 90.2167 16.168 89.7687 15.24C89.3367 14.296 89.1207 13.216 89.1207 12C89.1207 10.784 89.3367 9.72 89.7687 8.808C90.2167 7.88 90.8327 7.168 91.6167 6.672C92.4007 6.176 93.3047 5.928 94.3287 5.928C95.1287 5.928 95.8487 6.096 96.4887 6.432C97.1447 6.768 97.6487 7.24 98.0007 7.848V2.544C98.0007 2.064 98.1607 1.68 98.4807 1.392C98.8007 1.104 99.2247 0.959999 99.7527 0.959999ZM95.3847 15.432C96.2327 15.432 96.8807 15.144 97.3287 14.568C97.7927 13.976 98.0247 13.136 98.0247 12.048C98.0247 10.96 97.7927 10.128 97.3287 9.552C96.8807 8.976 96.2327 8.688 95.3847 8.688C94.5367 8.688 93.8807 8.976 93.4167 9.552C92.9527 10.112 92.7207 10.928 92.7207 12C92.7207 13.088 92.9527 13.936 93.4167 14.544C93.8807 15.136 94.5367 15.432 95.3847 15.432ZM110.079 18.192C108.831 18.192 107.735 17.944 106.791 17.448C105.847 16.936 105.119 16.224 104.607 15.312C104.095 14.384 103.839 13.296 103.839 12.048C103.839 10.8 104.095 9.72 104.607 8.808C105.119 7.88 105.847 7.168 106.791 6.672C107.735 6.176 108.831 5.928 110.079 5.928C111.327 5.928 112.423 6.176 113.367 6.672C114.311 7.168 115.039 7.88 115.551 8.808C116.063 9.72 116.319 10.8 116.319 12.048C116.319 13.296 116.063 14.384 115.551 15.312C115.039 16.224 114.311 16.936 113.367 17.448C112.423 17.944 111.327 18.192 110.079 18.192ZM110.079 15.432C111.839 15.432 112.719 14.304 112.719 12.048C112.719 10.912 112.487 10.064 112.023 9.504C111.575 8.944 110.927 8.664 110.079 8.664C108.319 8.664 107.439 9.792 107.439 12.048C107.439 14.304 108.319 15.432 110.079 15.432ZM131.612 18.216C130.348 18.216 129.172 18.072 128.084 17.784C126.996 17.48 126.108 17.056 125.42 16.512C125.18 16.336 125.004 16.152 124.892 15.96C124.796 15.752 124.748 15.496 124.748 15.192C124.748 14.792 124.868 14.44 125.108 14.136C125.364 13.832 125.652 13.68 125.972 13.68C126.148 13.68 126.316 13.712 126.476 13.776C126.652 13.824 126.86 13.92 127.1 14.064C127.788 14.496 128.484 14.816 129.188 15.024C129.892 15.216 130.668 15.312 131.516 15.312C132.572 15.312 133.38 15.136 133.94 14.784C134.5 14.432 134.78 13.928 134.78 13.272C134.78 12.776 134.516 12.376 133.988 12.072C133.476 11.768 132.556 11.48 131.228 11.208C129.74 10.904 128.548 10.536 127.652 10.104C126.772 9.672 126.124 9.136 125.708 8.496C125.308 7.856 125.108 7.08 125.108 6.168C125.108 5.16 125.396 4.256 125.972 3.456C126.564 2.64 127.372 2.008 128.396 1.56C129.436 1.096 130.604 0.863999 131.9 0.863999C134.172 0.863999 136.044 1.432 137.516 2.568C137.756 2.76 137.924 2.96 138.02 3.168C138.132 3.36 138.188 3.6 138.188 3.888C138.188 4.288 138.06 4.64 137.804 4.944C137.564 5.248 137.284 5.4 136.964 5.4C136.788 5.4 136.62 5.376 136.46 5.328C136.316 5.28 136.108 5.176 135.836 5.016C135.18 4.6 134.572 4.288 134.012 4.08C133.468 3.872 132.772 3.768 131.924 3.768C130.948 3.768 130.18 3.96 129.62 4.344C129.06 4.712 128.78 5.224 128.78 5.88C128.78 6.264 128.884 6.584 129.092 6.84C129.316 7.08 129.676 7.296 130.172 7.488C130.684 7.68 131.404 7.88 132.332 8.088C134.508 8.568 136.068 9.184 137.012 9.936C137.972 10.688 138.452 11.72 138.452 13.032C138.452 14.056 138.164 14.96 137.588 15.744C137.028 16.528 136.228 17.136 135.188 17.568C134.164 18 132.972 18.216 131.612 18.216ZM150.389 5.976C150.949 5.976 151.389 6.128 151.709 6.432C152.045 6.736 152.213 7.152 152.213 7.68V16.488C152.213 16.984 152.037 17.384 151.685 17.688C151.349 17.992 150.909 18.144 150.365 18.144C149.853 18.144 149.445 18 149.141 17.712C148.837 17.424 148.685 17.04 148.685 16.56V16.32C148.317 16.928 147.829 17.392 147.221 17.712C146.629 18.032 145.957 18.192 145.205 18.192C143.717 18.192 142.605 17.784 141.869 16.968C141.149 16.136 140.789 14.888 140.789 13.224V7.68C140.789 7.152 140.949 6.736 141.269 6.432C141.605 6.128 142.053 5.976 142.613 5.976C143.173 5.976 143.613 6.128 143.933 6.432C144.253 6.736 144.413 7.152 144.413 7.68V13.296C144.413 14 144.557 14.52 144.845 14.856C145.149 15.192 145.605 15.36 146.213 15.36C146.917 15.36 147.485 15.12 147.917 14.64C148.365 14.16 148.589 13.528 148.589 12.744V7.68C148.589 7.152 148.749 6.736 149.069 6.432C149.389 6.128 149.829 5.976 150.389 5.976ZM156.818 18.144C156.29 18.144 155.85 18 155.498 17.712C155.162 17.424 154.994 17 154.994 16.44V2.664C154.994 2.104 155.162 1.68 155.498 1.392C155.85 1.104 156.29 0.959999 156.818 0.959999C157.33 0.959999 157.754 1.104 158.09 1.392C158.442 1.68 158.618 2.104 158.618 2.664V16.44C158.618 17 158.442 17.424 158.09 17.712C157.754 18 157.33 18.144 156.818 18.144ZM6.77875 52.192C5.56275 52.192 4.40275 52.024 3.29875 51.688C2.21075 51.352 1.33875 50.888 0.68275 50.296C0.37875 50.04 0.22675 49.712 0.22675 49.312C0.22675 49.024 0.30675 48.784 0.46675 48.592C0.62675 48.384 0.81875 48.28 1.04275 48.28C1.26675 48.28 1.53875 48.384 1.85875 48.592C3.28275 49.648 4.90675 50.176 6.73075 50.176C8.01075 50.176 8.99475 49.936 9.68275 49.456C10.3708 48.976 10.7148 48.288 10.7148 47.392C10.7148 46.688 10.3948 46.16 9.75475 45.808C9.11475 45.456 8.09075 45.12 6.68275 44.8C5.33875 44.512 4.23475 44.184 3.37075 43.816C2.50675 43.448 1.82675 42.952 1.33075 42.328C0.85075 41.688 0.61075 40.88 0.61075 39.904C0.61075 38.928 0.87475 38.064 1.40275 37.312C1.94675 36.544 2.69875 35.952 3.65875 35.536C4.61875 35.104 5.71475 34.888 6.94675 34.888C8.08275 34.888 9.13075 35.048 10.0908 35.368C11.0508 35.688 11.8668 36.16 12.5388 36.784C12.8588 37.056 13.0188 37.384 13.0188 37.768C13.0188 38.04 12.9308 38.28 12.7548 38.488C12.5948 38.696 12.4028 38.8 12.1788 38.8C11.9708 38.8 11.7068 38.696 11.3868 38.488C10.6508 37.928 9.95475 37.528 9.29875 37.288C8.65875 37.032 7.88275 36.904 6.97075 36.904C5.73875 36.904 4.77875 37.16 4.09075 37.672C3.40275 38.168 3.05875 38.864 3.05875 39.76C3.05875 40.528 3.36275 41.112 3.97075 41.512C4.57875 41.896 5.55475 42.248 6.89875 42.568C8.30675 42.888 9.44275 43.224 10.3068 43.576C11.1868 43.912 11.8828 44.384 12.3948 44.992C12.9228 45.584 13.1868 46.352 13.1868 47.296C13.1868 48.256 12.9148 49.112 12.3708 49.864C11.8428 50.6 11.0908 51.176 10.1148 51.592C9.15475 51.992 8.04275 52.192 6.77875 52.192ZM20.8656 40C22.4176 40 23.5696 40.392 24.3216 41.176C25.0896 41.96 25.4736 43.152 25.4736 44.752V50.968C25.4736 51.336 25.3696 51.624 25.1616 51.832C24.9536 52.024 24.6656 52.12 24.2976 52.12C23.9456 52.12 23.6656 52.016 23.4576 51.808C23.2496 51.6 23.1456 51.32 23.1456 50.968V50.08C22.8416 50.752 22.3856 51.272 21.7776 51.64C21.1856 51.992 20.4896 52.168 19.6896 52.168C18.9216 52.168 18.2176 52.016 17.5776 51.712C16.9536 51.392 16.4576 50.96 16.0896 50.416C15.7216 49.872 15.5376 49.256 15.5376 48.568C15.5216 47.704 15.7376 47.032 16.1856 46.552C16.6336 46.056 17.3616 45.704 18.3696 45.496C19.3776 45.272 20.7776 45.16 22.5696 45.16H23.1216V44.464C23.1216 43.568 22.9376 42.92 22.5696 42.52C22.2016 42.12 21.6096 41.92 20.7936 41.92C20.2336 41.92 19.7056 41.992 19.2096 42.136C18.7136 42.28 18.1696 42.488 17.5776 42.76C17.1456 43 16.8416 43.12 16.6656 43.12C16.4256 43.12 16.2256 43.032 16.0656 42.856C15.9216 42.68 15.8496 42.456 15.8496 42.184C15.8496 41.944 15.9136 41.736 16.0416 41.56C16.1856 41.368 16.4096 41.184 16.7136 41.008C17.2736 40.704 17.9296 40.464 18.6816 40.288C19.4336 40.096 20.1616 40 20.8656 40ZM20.1216 50.368C21.0016 50.368 21.7216 50.072 22.2816 49.48C22.8416 48.872 23.1216 48.096 23.1216 47.152V46.528H22.6896C21.4416 46.528 20.4816 46.584 19.8096 46.696C19.1376 46.808 18.6576 47 18.3696 47.272C18.0816 47.528 17.9376 47.904 17.9376 48.4C17.9376 48.976 18.1456 49.448 18.5616 49.816C18.9776 50.184 19.4976 50.368 20.1216 50.368ZM35.1014 40C37.9014 40 39.3014 41.576 39.3014 44.728V50.968C39.3014 51.336 39.1894 51.624 38.9654 51.832C38.7574 52.024 38.4614 52.12 38.0774 52.12C37.7094 52.12 37.4134 52.016 37.1894 51.808C36.9814 51.6 36.8774 51.32 36.8774 50.968V44.848C36.8774 43.856 36.6774 43.128 36.2774 42.664C35.8934 42.2 35.2854 41.968 34.4534 41.968C33.4774 41.968 32.6934 42.272 32.1014 42.88C31.5094 43.488 31.2134 44.304 31.2134 45.328V50.968C31.2134 51.32 31.1014 51.6 30.8774 51.808C30.6694 52.016 30.3814 52.12 30.0134 52.12C29.6454 52.12 29.3494 52.016 29.1254 51.808C28.9014 51.6 28.7894 51.32 28.7894 50.968V41.2C28.7894 40.864 28.9014 40.592 29.1254 40.384C29.3654 40.16 29.6614 40.048 30.0134 40.048C30.3654 40.048 30.6454 40.152 30.8534 40.36C31.0614 40.568 31.1654 40.84 31.1654 41.176V42.16C31.5494 41.456 32.0854 40.92 32.7734 40.552C33.4614 40.184 34.2374 40 35.1014 40ZM48.3535 50.272C48.7055 50.304 48.9535 50.4 49.0975 50.56C49.2575 50.704 49.3375 50.912 49.3375 51.184C49.3375 51.504 49.2095 51.752 48.9535 51.928C48.7135 52.088 48.3535 52.152 47.8735 52.12L47.2255 52.072C45.9295 51.976 44.9615 51.584 44.3215 50.896C43.6815 50.192 43.3615 49.16 43.3615 47.8V42.16H41.9215C41.2175 42.16 40.8655 41.848 40.8655 41.224C40.8655 40.936 40.9535 40.712 41.1295 40.552C41.3215 40.376 41.5855 40.288 41.9215 40.288H43.3615V37.816C43.3615 37.448 43.4655 37.16 43.6735 36.952C43.8975 36.744 44.1935 36.64 44.5615 36.64C44.9295 36.64 45.2255 36.744 45.4495 36.952C45.6735 37.16 45.7855 37.448 45.7855 37.816V40.288H48.1615C48.4975 40.288 48.7535 40.376 48.9295 40.552C49.1215 40.712 49.2175 40.936 49.2175 41.224C49.2175 41.528 49.1215 41.76 48.9295 41.92C48.7535 42.08 48.4975 42.16 48.1615 42.16H45.7855V47.968C45.7855 48.72 45.9375 49.272 46.2415 49.624C46.5615 49.976 47.0415 50.176 47.6815 50.224L48.3535 50.272ZM55.9984 40C57.5504 40 58.7024 40.392 59.4544 41.176C60.2224 41.96 60.6064 43.152 60.6064 44.752V50.968C60.6064 51.336 60.5024 51.624 60.2944 51.832C60.0864 52.024 59.7984 52.12 59.4304 52.12C59.0784 52.12 58.7984 52.016 58.5904 51.808C58.3824 51.6 58.2784 51.32 58.2784 50.968V50.08C57.9744 50.752 57.5184 51.272 56.9104 51.64C56.3184 51.992 55.6224 52.168 54.8224 52.168C54.0544 52.168 53.3504 52.016 52.7104 51.712C52.0864 51.392 51.5904 50.96 51.2224 50.416C50.8544 49.872 50.6704 49.256 50.6704 48.568C50.6544 47.704 50.8704 47.032 51.3184 46.552C51.7664 46.056 52.4944 45.704 53.5024 45.496C54.5104 45.272 55.9104 45.16 57.7024 45.16H58.2544V44.464C58.2544 43.568 58.0704 42.92 57.7024 42.52C57.3344 42.12 56.7424 41.92 55.9264 41.92C55.3664 41.92 54.8384 41.992 54.3424 42.136C53.8464 42.28 53.3024 42.488 52.7104 42.76C52.2784 43 51.9744 43.12 51.7984 43.12C51.5584 43.12 51.3584 43.032 51.1984 42.856C51.0544 42.68 50.9824 42.456 50.9824 42.184C50.9824 41.944 51.0464 41.736 51.1744 41.56C51.3184 41.368 51.5424 41.184 51.8464 41.008C52.4064 40.704 53.0624 40.464 53.8144 40.288C54.5664 40.096 55.2944 40 55.9984 40ZM55.2544 50.368C56.1344 50.368 56.8544 50.072 57.4144 49.48C57.9744 48.872 58.2544 48.096 58.2544 47.152V46.528H57.8224C56.5744 46.528 55.6144 46.584 54.9424 46.696C54.2704 46.808 53.7904 47 53.5024 47.272C53.2144 47.528 53.0704 47.904 53.0704 48.4C53.0704 48.976 53.2784 49.448 53.6944 49.816C54.1104 50.184 54.6304 50.368 55.2544 50.368ZM77.9063 52.192C76.2903 52.192 74.8823 51.848 73.6823 51.16C72.4823 50.456 71.5623 49.456 70.9223 48.16C70.2823 46.848 69.9623 45.304 69.9623 43.528C69.9623 41.768 70.2823 40.24 70.9223 38.944C71.5623 37.632 72.4823 36.632 73.6823 35.944C74.8823 35.24 76.2903 34.888 77.9063 34.888C78.9623 34.888 79.9623 35.056 80.9063 35.392C81.8503 35.712 82.6743 36.184 83.3783 36.808C83.6823 37.048 83.8343 37.368 83.8343 37.768C83.8343 38.056 83.7543 38.304 83.5943 38.512C83.4343 38.704 83.2423 38.8 83.0183 38.8C82.7463 38.8 82.4823 38.696 82.2263 38.488C81.4583 37.912 80.7543 37.512 80.1143 37.288C79.4903 37.048 78.7783 36.928 77.9783 36.928C76.2183 36.928 74.8663 37.496 73.9223 38.632C72.9783 39.768 72.5063 41.4 72.5063 43.528C72.5063 45.672 72.9783 47.312 73.9223 48.448C74.8663 49.584 76.2183 50.152 77.9783 50.152C78.7463 50.152 79.4423 50.032 80.0663 49.792C80.7063 49.552 81.4263 49.152 82.2263 48.592C82.5463 48.384 82.8103 48.28 83.0183 48.28C83.2423 48.28 83.4343 48.384 83.5943 48.592C83.7543 48.784 83.8343 49.024 83.8343 49.312C83.8343 49.712 83.6823 50.032 83.3783 50.272C82.6743 50.896 81.8503 51.376 80.9063 51.712C79.9623 52.032 78.9623 52.192 77.9063 52.192ZM91.1781 40C92.7301 40 93.8821 40.392 94.6341 41.176C95.4021 41.96 95.7861 43.152 95.7861 44.752V50.968C95.7861 51.336 95.6821 51.624 95.4741 51.832C95.2661 52.024 94.9781 52.12 94.6101 52.12C94.2581 52.12 93.9781 52.016 93.7701 51.808C93.5621 51.6 93.4581 51.32 93.4581 50.968V50.08C93.1541 50.752 92.6981 51.272 92.0901 51.64C91.4981 51.992 90.8021 52.168 90.0021 52.168C89.2341 52.168 88.5301 52.016 87.8901 51.712C87.2661 51.392 86.7701 50.96 86.4021 50.416C86.0341 49.872 85.8501 49.256 85.8501 48.568C85.8341 47.704 86.0501 47.032 86.4981 46.552C86.9461 46.056 87.6741 45.704 88.6821 45.496C89.6901 45.272 91.0901 45.16 92.8821 45.16H93.4341V44.464C93.4341 43.568 93.2501 42.92 92.8821 42.52C92.5141 42.12 91.9221 41.92 91.1061 41.92C90.5461 41.92 90.0181 41.992 89.5221 42.136C89.0261 42.28 88.4821 42.488 87.8901 42.76C87.4581 43 87.1541 43.12 86.9781 43.12C86.7381 43.12 86.5381 43.032 86.3781 42.856C86.2341 42.68 86.1621 42.456 86.1621 42.184C86.1621 41.944 86.2261 41.736 86.3541 41.56C86.4981 41.368 86.7221 41.184 87.0261 41.008C87.5861 40.704 88.2421 40.464 88.9941 40.288C89.7461 40.096 90.4741 40 91.1781 40ZM90.4341 50.368C91.3141 50.368 92.0341 50.072 92.5941 49.48C93.1541 48.872 93.4341 48.096 93.4341 47.152V46.528H93.0021C91.7541 46.528 90.7941 46.584 90.1221 46.696C89.4501 46.808 88.9701 47 88.6821 47.272C88.3941 47.528 88.2501 47.904 88.2501 48.4C88.2501 48.976 88.4581 49.448 88.8741 49.816C89.2901 50.184 89.8101 50.368 90.4341 50.368ZM104.838 50.272C105.19 50.304 105.438 50.4 105.582 50.56C105.742 50.704 105.822 50.912 105.822 51.184C105.822 51.504 105.694 51.752 105.438 51.928C105.198 52.088 104.838 52.152 104.358 52.12L103.71 52.072C102.414 51.976 101.446 51.584 100.806 50.896C100.166 50.192 99.8459 49.16 99.8459 47.8V42.16H98.4059C97.7019 42.16 97.3499 41.848 97.3499 41.224C97.3499 40.936 97.4379 40.712 97.6139 40.552C97.8059 40.376 98.0699 40.288 98.4059 40.288H99.8459V37.816C99.8459 37.448 99.9499 37.16 100.158 36.952C100.382 36.744 100.678 36.64 101.046 36.64C101.414 36.64 101.71 36.744 101.934 36.952C102.158 37.16 102.27 37.448 102.27 37.816V40.288H104.646C104.982 40.288 105.238 40.376 105.414 40.552C105.606 40.712 105.702 40.936 105.702 41.224C105.702 41.528 105.606 41.76 105.414 41.92C105.238 42.08 104.982 42.16 104.646 42.16H102.27V47.968C102.27 48.72 102.422 49.272 102.726 49.624C103.046 49.976 103.526 50.176 104.166 50.224L104.838 50.272ZM112.483 40C114.035 40 115.187 40.392 115.939 41.176C116.707 41.96 117.091 43.152 117.091 44.752V50.968C117.091 51.336 116.987 51.624 116.779 51.832C116.571 52.024 116.283 52.12 115.915 52.12C115.563 52.12 115.283 52.016 115.075 51.808C114.867 51.6 114.763 51.32 114.763 50.968V50.08C114.459 50.752 114.003 51.272 113.395 51.64C112.803 51.992 112.107 52.168 111.307 52.168C110.539 52.168 109.835 52.016 109.195 51.712C108.571 51.392 108.075 50.96 107.707 50.416C107.339 49.872 107.155 49.256 107.155 48.568C107.139 47.704 107.355 47.032 107.803 46.552C108.251 46.056 108.979 45.704 109.987 45.496C110.995 45.272 112.395 45.16 114.187 45.16H114.739V44.464C114.739 43.568 114.555 42.92 114.187 42.52C113.819 42.12 113.227 41.92 112.411 41.92C111.851 41.92 111.323 41.992 110.827 42.136C110.331 42.28 109.787 42.488 109.195 42.76C108.763 43 108.459 43.12 108.283 43.12C108.043 43.12 107.843 43.032 107.683 42.856C107.539 42.68 107.467 42.456 107.467 42.184C107.467 41.944 107.531 41.736 107.659 41.56C107.803 41.368 108.027 41.184 108.331 41.008C108.891 40.704 109.547 40.464 110.299 40.288C111.051 40.096 111.779 40 112.483 40ZM111.739 50.368C112.619 50.368 113.339 50.072 113.899 49.48C114.459 48.872 114.739 48.096 114.739 47.152V46.528H114.307C113.059 46.528 112.099 46.584 111.427 46.696C110.755 46.808 110.275 47 109.987 47.272C109.699 47.528 109.555 47.904 109.555 48.4C109.555 48.976 109.763 49.448 110.179 49.816C110.595 50.184 111.115 50.368 111.739 50.368ZM126.551 40.048C127.319 40 127.703 40.328 127.703 41.032C127.703 41.384 127.615 41.648 127.439 41.824C127.263 42 126.959 42.104 126.527 42.136L125.807 42.208C124.799 42.304 124.047 42.656 123.551 43.264C123.071 43.872 122.831 44.608 122.831 45.472V50.968C122.831 51.352 122.719 51.64 122.495 51.832C122.271 52.024 121.983 52.12 121.631 52.12C121.279 52.12 120.983 52.024 120.743 51.832C120.519 51.64 120.407 51.352 120.407 50.968V41.2C120.407 40.832 120.519 40.552 120.743 40.36C120.983 40.152 121.279 40.048 121.631 40.048C121.951 40.048 122.215 40.152 122.423 40.36C122.647 40.552 122.759 40.824 122.759 41.176V42.328C123.079 41.624 123.543 41.088 124.151 40.72C124.759 40.352 125.447 40.136 126.215 40.072L126.551 40.048ZM130.42 52.12C130.068 52.12 129.772 52.024 129.532 51.832C129.308 51.64 129.196 51.352 129.196 50.968V41.224C129.196 40.84 129.308 40.552 129.532 40.36C129.772 40.152 130.068 40.048 130.42 40.048C130.772 40.048 131.06 40.152 131.284 40.36C131.508 40.552 131.62 40.84 131.62 41.224V50.968C131.62 51.352 131.508 51.64 131.284 51.832C131.06 52.024 130.772 52.12 130.42 52.12ZM130.42 37.696C129.956 37.696 129.588 37.568 129.316 37.312C129.044 37.056 128.908 36.72 128.908 36.304C128.908 35.888 129.044 35.56 129.316 35.32C129.588 35.064 129.956 34.936 130.42 34.936C130.868 34.936 131.228 35.064 131.5 35.32C131.788 35.56 131.932 35.888 131.932 36.304C131.932 36.72 131.796 37.056 131.524 37.312C131.252 37.568 130.884 37.696 130.42 37.696ZM141.32 40C144.12 40 145.52 41.576 145.52 44.728V50.968C145.52 51.336 145.408 51.624 145.184 51.832C144.976 52.024 144.68 52.12 144.296 52.12C143.928 52.12 143.632 52.016 143.408 51.808C143.2 51.6 143.096 51.32 143.096 50.968V44.848C143.096 43.856 142.896 43.128 142.496 42.664C142.112 42.2 141.504 41.968 140.672 41.968C139.696 41.968 138.912 42.272 138.32 42.88C137.728 43.488 137.432 44.304 137.432 45.328V50.968C137.432 51.32 137.32 51.6 137.096 51.808C136.888 52.016 136.6 52.12 136.232 52.12C135.864 52.12 135.568 52.016 135.344 51.808C135.12 51.6 135.008 51.32 135.008 50.968V41.2C135.008 40.864 135.12 40.592 135.344 40.384C135.584 40.16 135.88 40.048 136.232 40.048C136.584 40.048 136.864 40.152 137.072 40.36C137.28 40.568 137.384 40.84 137.384 41.176V42.16C137.768 41.456 138.304 40.92 138.992 40.552C139.68 40.184 140.456 40 141.32 40ZM153.756 40C155.308 40 156.46 40.392 157.212 41.176C157.98 41.96 158.364 43.152 158.364 44.752V50.968C158.364 51.336 158.26 51.624 158.052 51.832C157.844 52.024 157.556 52.12 157.188 52.12C156.836 52.12 156.556 52.016 156.348 51.808C156.14 51.6 156.036 51.32 156.036 50.968V50.08C155.732 50.752 155.276 51.272 154.668 51.64C154.076 51.992 153.38 52.168 152.58 52.168C151.812 52.168 151.108 52.016 150.468 51.712C149.844 51.392 149.348 50.96 148.98 50.416C148.612 49.872 148.428 49.256 148.428 48.568C148.412 47.704 148.628 47.032 149.076 46.552C149.524 46.056 150.252 45.704 151.26 45.496C152.268 45.272 153.668 45.16 155.46 45.16H156.012V44.464C156.012 43.568 155.828 42.92 155.46 42.52C155.092 42.12 154.5 41.92 153.684 41.92C153.124 41.92 152.596 41.992 152.1 42.136C151.604 42.28 151.06 42.488 150.468 42.76C150.036 43 149.732 43.12 149.556 43.12C149.316 43.12 149.116 43.032 148.956 42.856C148.812 42.68 148.74 42.456 148.74 42.184C148.74 41.944 148.804 41.736 148.932 41.56C149.076 41.368 149.3 41.184 149.604 41.008C150.164 40.704 150.82 40.464 151.572 40.288C152.324 40.096 153.052 40 153.756 40ZM153.012 50.368C153.892 50.368 154.612 50.072 155.172 49.48C155.732 48.872 156.012 48.096 156.012 47.152V46.528H155.58C154.332 46.528 153.372 46.584 152.7 46.696C152.028 46.808 151.548 47 151.26 47.272C150.972 47.528 150.828 47.904 150.828 48.4C150.828 48.976 151.036 49.448 151.452 49.816C151.868 50.184 152.388 50.368 153.012 50.368Z" fill="url(#paint0_linear)"/>
<defs>
<linearGradient id="paint0_linear" x1="79.5" y1="-7" x2="79.5" y2="61" gradientUnits="userSpaceOnUse">
<stop stop-color="white"/>
<stop offset="1" stop-color="white" stop-opacity="0"/>
</linearGradient>
</defs>
</svg>
